<mxfile host="app.diagrams.net" modified="2024-04-02T18:19:34.193Z" agent="Mozilla/5.0 (Windows NT 10.0; Win64; x64) AppleWebKit/537.36 (KHTML, like Gecko) Chrome/123.0.0.0 Safari/537.36" etag="9j88RphCLZ_JO2SWVDp8" version="23.1.7" type="device">
  <diagram name="Page-1" id="EUUm8l8zq7uqVXQFUaeM">
    <mxGraphModel dx="1434" dy="792" grid="1" gridSize="10" guides="1" tooltips="1" connect="1" arrows="1" fold="1" page="1" pageScale="1" pageWidth="850" pageHeight="1100" math="0" shadow="0">
      <root>
        <mxCell id="0" />
        <mxCell id="1" parent="0" />
        <mxCell id="d33sUZX4qN_MVD9nKcPo-7" value="" style="edgeStyle=orthogonalEdgeStyle;rounded=0;orthogonalLoop=1;jettySize=auto;html=1;" edge="1" parent="1" source="d33sUZX4qN_MVD9nKcPo-3" target="d33sUZX4qN_MVD9nKcPo-6">
          <mxGeometry relative="1" as="geometry" />
        </mxCell>
        <mxCell id="d33sUZX4qN_MVD9nKcPo-9" value="" style="edgeStyle=orthogonalEdgeStyle;rounded=0;orthogonalLoop=1;jettySize=auto;html=1;" edge="1" parent="1" source="d33sUZX4qN_MVD9nKcPo-3" target="d33sUZX4qN_MVD9nKcPo-8">
          <mxGeometry relative="1" as="geometry" />
        </mxCell>
        <mxCell id="d33sUZX4qN_MVD9nKcPo-3" value="Should I use an item?" style="rhombus;whiteSpace=wrap;html=1;" vertex="1" parent="1">
          <mxGeometry x="555" y="370" width="100" height="100" as="geometry" />
        </mxCell>
        <mxCell id="d33sUZX4qN_MVD9nKcPo-17" value="" style="edgeStyle=orthogonalEdgeStyle;rounded=0;orthogonalLoop=1;jettySize=auto;html=1;" edge="1" parent="1" source="d33sUZX4qN_MVD9nKcPo-5" target="d33sUZX4qN_MVD9nKcPo-11">
          <mxGeometry relative="1" as="geometry" />
        </mxCell>
        <mxCell id="d33sUZX4qN_MVD9nKcPo-18" value="" style="edgeStyle=orthogonalEdgeStyle;rounded=0;orthogonalLoop=1;jettySize=auto;html=1;" edge="1" parent="1" source="d33sUZX4qN_MVD9nKcPo-5" target="d33sUZX4qN_MVD9nKcPo-12">
          <mxGeometry relative="1" as="geometry" />
        </mxCell>
        <mxCell id="d33sUZX4qN_MVD9nKcPo-5" value="Can I ranged attack?" style="rhombus;whiteSpace=wrap;html=1;" vertex="1" parent="1">
          <mxGeometry x="550" y="515" width="110" height="110" as="geometry" />
        </mxCell>
        <mxCell id="d33sUZX4qN_MVD9nKcPo-24" value="" style="edgeStyle=orthogonalEdgeStyle;rounded=0;orthogonalLoop=1;jettySize=auto;html=1;" edge="1" parent="1" source="d33sUZX4qN_MVD9nKcPo-6" target="d33sUZX4qN_MVD9nKcPo-13">
          <mxGeometry relative="1" as="geometry" />
        </mxCell>
        <mxCell id="d33sUZX4qN_MVD9nKcPo-6" value="Yes" style="rhombus;whiteSpace=wrap;html=1;" vertex="1" parent="1">
          <mxGeometry x="440" y="380" width="80" height="80" as="geometry" />
        </mxCell>
        <mxCell id="d33sUZX4qN_MVD9nKcPo-21" style="edgeStyle=orthogonalEdgeStyle;rounded=0;orthogonalLoop=1;jettySize=auto;html=1;entryX=0.5;entryY=0;entryDx=0;entryDy=0;" edge="1" parent="1" source="d33sUZX4qN_MVD9nKcPo-8" target="d33sUZX4qN_MVD9nKcPo-5">
          <mxGeometry relative="1" as="geometry">
            <mxPoint x="700" y="510" as="targetPoint" />
            <Array as="points">
              <mxPoint x="730" y="490" />
              <mxPoint x="605" y="490" />
            </Array>
          </mxGeometry>
        </mxCell>
        <mxCell id="d33sUZX4qN_MVD9nKcPo-8" value="No" style="rhombus;whiteSpace=wrap;html=1;" vertex="1" parent="1">
          <mxGeometry x="690" y="380" width="80" height="80" as="geometry" />
        </mxCell>
        <mxCell id="d33sUZX4qN_MVD9nKcPo-10" value="EXIT" style="shape=process;whiteSpace=wrap;html=1;backgroundOutline=1;" vertex="1" parent="1">
          <mxGeometry x="545" y="970" width="120" height="60" as="geometry" />
        </mxCell>
        <mxCell id="d33sUZX4qN_MVD9nKcPo-23" value="" style="edgeStyle=orthogonalEdgeStyle;rounded=0;orthogonalLoop=1;jettySize=auto;html=1;" edge="1" parent="1" source="d33sUZX4qN_MVD9nKcPo-11" target="d33sUZX4qN_MVD9nKcPo-14">
          <mxGeometry relative="1" as="geometry" />
        </mxCell>
        <mxCell id="d33sUZX4qN_MVD9nKcPo-11" value="Yes" style="rhombus;whiteSpace=wrap;html=1;" vertex="1" parent="1">
          <mxGeometry x="440" y="530" width="80" height="80" as="geometry" />
        </mxCell>
        <mxCell id="d33sUZX4qN_MVD9nKcPo-22" style="edgeStyle=orthogonalEdgeStyle;rounded=0;orthogonalLoop=1;jettySize=auto;html=1;entryX=0.5;entryY=0;entryDx=0;entryDy=0;" edge="1" parent="1" source="d33sUZX4qN_MVD9nKcPo-12" target="d33sUZX4qN_MVD9nKcPo-16">
          <mxGeometry relative="1" as="geometry">
            <Array as="points">
              <mxPoint x="740" y="640" />
              <mxPoint x="605" y="640" />
            </Array>
          </mxGeometry>
        </mxCell>
        <mxCell id="d33sUZX4qN_MVD9nKcPo-12" value="No" style="rhombus;whiteSpace=wrap;html=1;" vertex="1" parent="1">
          <mxGeometry x="700" y="530" width="80" height="80" as="geometry" />
        </mxCell>
        <mxCell id="d33sUZX4qN_MVD9nKcPo-30" style="edgeStyle=orthogonalEdgeStyle;rounded=0;orthogonalLoop=1;jettySize=auto;html=1;entryX=0;entryY=0.5;entryDx=0;entryDy=0;" edge="1" parent="1" source="d33sUZX4qN_MVD9nKcPo-13" target="d33sUZX4qN_MVD9nKcPo-10">
          <mxGeometry relative="1" as="geometry">
            <Array as="points">
              <mxPoint x="160" y="1000" />
            </Array>
          </mxGeometry>
        </mxCell>
        <mxCell id="d33sUZX4qN_MVD9nKcPo-13" value="Use Item" style="rounded=1;whiteSpace=wrap;html=1;" vertex="1" parent="1">
          <mxGeometry x="100" y="390" width="120" height="60" as="geometry" />
        </mxCell>
        <mxCell id="d33sUZX4qN_MVD9nKcPo-28" style="edgeStyle=orthogonalEdgeStyle;rounded=0;orthogonalLoop=1;jettySize=auto;html=1;entryX=0;entryY=0.5;entryDx=0;entryDy=0;" edge="1" parent="1" source="d33sUZX4qN_MVD9nKcPo-14" target="d33sUZX4qN_MVD9nKcPo-10">
          <mxGeometry relative="1" as="geometry">
            <Array as="points">
              <mxPoint x="290" y="1000" />
            </Array>
          </mxGeometry>
        </mxCell>
        <mxCell id="d33sUZX4qN_MVD9nKcPo-14" value="Ranged Attack" style="rounded=1;whiteSpace=wrap;html=1;" vertex="1" parent="1">
          <mxGeometry x="230" y="540" width="120" height="60" as="geometry" />
        </mxCell>
        <mxCell id="d33sUZX4qN_MVD9nKcPo-27" style="edgeStyle=orthogonalEdgeStyle;rounded=0;orthogonalLoop=1;jettySize=auto;html=1;" edge="1" parent="1" source="d33sUZX4qN_MVD9nKcPo-15" target="d33sUZX4qN_MVD9nKcPo-10">
          <mxGeometry relative="1" as="geometry">
            <Array as="points">
              <mxPoint x="390" y="1000" />
            </Array>
          </mxGeometry>
        </mxCell>
        <mxCell id="d33sUZX4qN_MVD9nKcPo-15" value="Melee Attack" style="rounded=1;whiteSpace=wrap;html=1;" vertex="1" parent="1">
          <mxGeometry x="330" y="683" width="120" height="60" as="geometry" />
        </mxCell>
        <mxCell id="d33sUZX4qN_MVD9nKcPo-26" style="edgeStyle=orthogonalEdgeStyle;rounded=0;orthogonalLoop=1;jettySize=auto;html=1;entryX=1;entryY=0.5;entryDx=0;entryDy=0;" edge="1" parent="1" source="d33sUZX4qN_MVD9nKcPo-16" target="d33sUZX4qN_MVD9nKcPo-15">
          <mxGeometry relative="1" as="geometry" />
        </mxCell>
        <mxCell id="d33sUZX4qN_MVD9nKcPo-32" value="" style="edgeStyle=orthogonalEdgeStyle;rounded=0;orthogonalLoop=1;jettySize=auto;html=1;" edge="1" parent="1" source="d33sUZX4qN_MVD9nKcPo-16" target="d33sUZX4qN_MVD9nKcPo-31">
          <mxGeometry relative="1" as="geometry" />
        </mxCell>
        <mxCell id="d33sUZX4qN_MVD9nKcPo-16" value="Can I melee attack?" style="rhombus;whiteSpace=wrap;html=1;" vertex="1" parent="1">
          <mxGeometry x="552" y="660" width="106" height="106" as="geometry" />
        </mxCell>
        <mxCell id="d33sUZX4qN_MVD9nKcPo-33" value="" style="edgeStyle=orthogonalEdgeStyle;rounded=0;orthogonalLoop=1;jettySize=auto;html=1;" edge="1" parent="1" source="d33sUZX4qN_MVD9nKcPo-31" target="d33sUZX4qN_MVD9nKcPo-10">
          <mxGeometry relative="1" as="geometry" />
        </mxCell>
        <mxCell id="d33sUZX4qN_MVD9nKcPo-31" value="Attempt &lt;br&gt;Escape" style="rhombus;whiteSpace=wrap;html=1;" vertex="1" parent="1">
          <mxGeometry x="552" y="800" width="106" height="106" as="geometry" />
        </mxCell>
      </root>
    </mxGraphModel>
  </diagram>
</mxfile>
